<svg xmlns="http://www.w3.org/2000/svg" version="1.1" xmlns:xlink="http://www.w3.org/1999/xlink" width="841.9" height="595.3"><svg id="SvgjsSvg1001" xmlns="http://www.w3.org/2000/svg" version="1.1" viewBox="0 0 841.9 595.3">
  <!-- Generator: Adobe Illustrator 29.8.1, SVG Export Plug-In . SVG Version: 2.1.1 Build 2)  -->
  <defs>
    <style>
      .st0 {
        fill: #f6a8bc;
      }

      .st1 {
        fill: #ffefd6;
      }
    </style>
  </defs>
  <path class="st0" d="M264.6,295.4s-69-55.7,2.7-119.4c0,0,34.5-23.9,90.2-10.6,0,0,8-71.6,95.5-58.4,87.6,13.3,50.4,111.4,50.4,111.4,0,0,108.8,0,103.5,66.3-5.3,66.3-66.3,76.9-66.3,76.9,0,0,15.9,76.9-31.8,103.5-47.8,26.5-71.6,8-71.6,8,0,0-29.2-15.9-61-39.8,0,0-50.4,31.8-114.1,5.3s2.7-143.3,2.7-143.3Z"></path>
  <path class="st1" d="M391.4,274.8s42.5-10.6,47.8,26.5c5.3,37.1-15.9,39.8-15.9,39.8,0,0-37.1,21.2-50.4-29.2,0,0-.2-30.1,18.6-37.1Z"></path>
</svg><style>@media (prefers-color-scheme: light) { :root { filter: none; } }
@media (prefers-color-scheme: dark) { :root { filter: none; } }
</style></svg>